<svg width="112.42396850585938px" height="120.8px" xmlns="http://www.w3.org/2000/svg" viewBox="193.78801574707032 14.600000000000001 112.42396850585938 120.8" style="background: rgba(0, 0, 0, 0);" preserveAspectRatio="xMidYMid"><defs><linearGradient id="editing-outline-gradient" x1="-0.41354545764260087" x2="1.4135454576426008" y1="0.09326335692419985" y2="0.9067366430758002"><stop offset="0" stop-color="#ee4208"></stop><stop offset="1" stop-color="#4139ff"></stop></linearGradient><filter id="editing-outline" x="-100%" y="-100%" width="300%" height="300%"><feMorphology in="SourceGraphic" operator="dilate" radius="1" result="outline"></feMorphology><feComposite operator="out" in="outline" in2="SourceAlpha"></feComposite></filter></defs><g filter="url(#editing-outline)"><g transform="translate(220.118061542511, 102.52000045776367)"><path d="M-6.98 8.83L-6.98 8.83L-6.98 8.83Q-3.71 8.45-1.66 4.22L-1.66 4.22L-1.66 4.22Q0.45-0.06 2.37-9.92L2.37-9.92L8.58-42.24L22.46-42.24L16.26-9.92L16.26-9.92Q13.89 2.62 9.98 7.55L9.98 7.55L9.98 7.55Q7.94 10.11 5.34 11.14L5.34 11.14L5.34 11.14Q2.75 12.16-0.06 12.16L-0.06 12.16L-0.06 12.16Q-2.88 12.16-4.70 11.14L-4.70 11.14L-4.70 11.14Q-6.53 10.11-6.98 8.83ZM37.41 0.16L37.41 0.16L37.41 0.16Q33.98-0.45 32.19-0.70L32.19-0.70L32.19-0.70Q30.40-0.96 28.51-0.96L28.51-0.96L28.51-0.96Q26.62-0.96 25.66 0L25.66 0L25.66 0Q24.19-1.09 23.42-4.54L23.42-4.54L23.42-4.54Q23.17-5.50 23.17-7.10L23.17-7.10L23.17-7.10Q23.17-10.56 27.14-13.95L27.14-13.95L47.10-30.34L47.10-30.34Q38.85-31.68 35.52-31.68L35.52-31.68L35.52-31.68Q32.19-31.68 29.12-30.21L29.12-30.21L29.12-30.21Q27.39-33.02 27.39-36.29L27.39-36.29L27.39-36.29Q27.39-39.55 29.79-41.22L29.79-41.22L29.79-41.22Q32.19-42.88 36.22-42.88L36.22-42.88L36.22-42.88Q38.02-42.88 39.94-42.62L39.94-42.62L39.94-42.62Q41.86-42.37 43.78-42.11L43.78-42.11L47.55-41.54L47.55-41.54Q49.41-41.28 51.81-41.28L51.81-41.28L51.81-41.28Q54.21-41.28 56.90-41.92L56.90-41.92L56.90-41.92Q59.46-39.68 59.46-35.97L59.46-35.97L59.46-35.97Q59.46-31.49 56.38-29.06L56.38-29.06L34.62-11.65L34.62-11.65Q39.30-10.37 47.04-10.37L47.04-10.37L47.04-10.37Q50.88-10.37 53.31-12.29L53.31-12.29L53.31-12.29Q54.40-10.88 54.69-9.70L54.69-9.70L54.69-9.70Q54.98-8.51 54.98-6.82L54.98-6.82L54.98-6.82Q54.98-5.12 54.40-3.74L54.40-3.74L54.40-3.74Q53.82-2.37 52.61-1.34L52.61-1.34L52.61-1.34Q50.18 0.77 44.80 0.77L44.80 0.77L44.80 0.77Q40.83 0.77 37.41 0.16Z" fill="url(#editing-outline-gradient)"></path></g></g><style>text {
  font-size: 64px;
  font-family: Arial Black;
  dominant-baseline: central;
  text-anchor: middle;
}</style></svg>